<?xml version="1.0" encoding="utf-8"?>
<svg width="802" height="185" viewBox="0 0 802 185" fill="none" xmlns="http://www.w3.org/2000/svg">
  <defs>
    <linearGradient id="gradient_1" gradientUnits="userSpaceOnUse" x1="0" y1="0" x2="158.984" y2="158.984">
      <stop offset="0" stop-color="#4F46E5" />
      <stop offset="1" stop-color="#06B6D4" />
    </linearGradient>
    <linearGradient id="gradient_2" gradientUnits="userSpaceOnUse" x1="29.676" y1="42.195" x2="591.045" y2="42.195">
      <stop offset="0" stop-color="#3E60E1" />
      <stop offset="1" stop-color="#189AD8" />
    </linearGradient>
  </defs>
  <g>
    <g>
      <path d="M0 79.4922C0 35.5899 35.5899 0 79.4922 0C123.395 0 158.984 35.5899 158.984 79.4922C158.984 123.395 123.395 158.984 79.4922 158.984C35.5899 158.984 0 123.395 0 79.4922Z" fill="url(#gradient_1)" fill-rule="evenodd" transform="translate(13.008 13.008)" />
      <path d="M28.9063 0L0 57.8125L21.6797 57.8125L10.8398 101.172L43.3594 39.7461L21.6797 39.7461L28.9063 0Z" fill="#FFFFFF" transform="translate(72.266 43.359)" />
      <path d="M0 50.5859C0 22.6481 22.6481 0 50.5859 0C78.5238 0 101.172 22.6481 101.172 50.5859C101.172 78.5238 78.5238 101.172 50.5859 101.172C22.6481 101.172 0 78.5238 0 50.5859Z" fill="none" stroke-width="6" stroke="#FFFFFF" stroke-opacity="0.3" transform="translate(41.914 41.914)" />
      <path d="M0 3.61328C0 1.61772 1.61772 0 3.61328 0C5.60884 0 7.22656 1.61772 7.22656 3.61328C7.22656 5.60884 5.60884 7.22656 3.61328 7.22656C1.61772 7.22656 0 5.60884 0 3.61328Z" fill="#FFFFFF" fill-rule="evenodd" transform="translate(88.887 88.887)" />
    </g>
    <path d="M0 9.30769L0 0L64.7474 0L64.7474 9.30769L37.6007 9.30769L37.6007 86.6461L27.1467 86.6461L27.1467 9.30769L0 9.30769ZM96.4466 88C90.6013 88 85.4797 86.6038 81.0817 83.8115C76.6837 81.0192 73.2552 77.1128 70.7963 72.0923C68.3374 67.0718 67.1079 61.2051 67.1079 54.4923C67.1079 47.7231 68.3374 41.8141 70.7963 36.7654C73.2552 31.7166 76.6837 27.7961 81.0817 25.0038C85.4797 22.2115 90.6013 20.8154 96.4466 20.8154C102.292 20.8154 107.413 22.2115 111.811 25.0038C116.209 27.7961 119.638 31.7166 122.097 36.7654C124.556 41.8141 125.785 47.7231 125.785 54.4923C125.785 61.2051 124.556 67.0718 122.097 72.0923C119.638 77.1128 116.209 81.0192 111.811 83.8115C107.413 86.6038 102.292 88 96.4466 88L96.4466 88ZM96.4467 79.0308C100.887 79.0308 104.54 77.8885 107.407 75.6039C110.273 73.3192 112.395 70.3154 113.772 66.5923C115.149 62.8692 115.837 58.8359 115.837 54.4923C115.837 50.1487 115.149 46.1013 113.772 42.35C112.395 38.5987 110.273 35.5667 107.407 33.2539C104.54 30.941 100.887 29.7846 96.4467 29.7846C92.0065 29.7846 88.3533 30.941 85.4868 33.2539C82.6204 35.5667 80.4987 38.5987 79.1217 42.35C77.7447 46.1013 77.0562 50.1487 77.0562 54.4923C77.0562 58.8359 77.7447 62.8692 79.1217 66.5923C80.4987 70.3154 82.6204 73.3192 85.4868 75.6039C88.3533 77.8885 92.0065 79.0308 96.4467 79.0308L96.4467 79.0308ZM181.765 60.0769L181.765 21.6615L191.713 21.6615L191.713 86.6461L181.765 86.6461L181.765 75.6461L181.09 75.6461C179.573 78.9461 177.212 81.7455 174.009 84.0442C170.805 86.3429 166.758 87.4923 161.868 87.4923C155.798 87.4923 150.796 85.4756 146.862 81.4423C142.928 77.4089 140.96 71.2461 140.96 62.9538L140.96 21.6615L150.909 21.6615L150.909 62.2769C150.909 67.0154 152.236 70.7948 154.892 73.6154C157.548 76.4359 160.941 77.8461 165.072 77.8461C167.545 77.8461 170.067 77.2115 172.639 75.9423C175.21 74.673 177.374 72.7269 179.13 70.1038C180.887 67.4807 181.765 64.1384 181.765 60.0769L181.765 60.0769ZM236.227 88C230.156 88 224.93 86.5615 220.546 83.6846C216.162 80.8077 212.789 76.8449 210.429 71.7961C208.068 66.7474 206.888 60.9795 206.888 54.4923C206.888 47.8923 208.103 42.0609 210.534 36.9981C212.965 31.9352 216.365 27.9724 220.735 25.1096C225.105 22.2468 230.213 20.8154 236.058 20.8154C240.611 20.8154 244.713 21.6615 248.367 23.3538C252.02 25.0461 255.013 27.4154 257.345 30.4615C259.678 33.5077 261.125 37.0615 261.687 41.1231L251.739 41.1231C250.98 38.1615 249.301 35.5314 246.702 33.2327C244.102 30.934 240.611 29.7846 236.227 29.7846C230.409 29.7846 225.723 32.0058 222.168 36.4481C218.614 40.8904 216.836 46.7923 216.836 54.1538C216.836 61.6846 218.592 67.7134 222.105 72.2404C225.618 76.7673 230.325 79.0308 236.227 79.0308C240.105 79.0308 243.428 78.0295 246.196 76.0269C248.964 74.0243 250.812 71.2461 251.739 67.6923L261.687 67.6923C261.125 71.5282 259.741 74.9763 257.535 78.0365C255.329 81.0968 252.42 83.5224 248.809 85.3134C245.198 87.1045 241.004 88 236.227 88L236.227 88ZM286.136 47.5538L286.136 86.6461L276.188 86.6461L276.188 0L286.136 0L286.136 31.8154L286.979 31.8154C288.497 28.459 290.78 25.7865 293.829 23.7981C296.878 21.8096 300.946 20.8154 306.032 20.8154C312.665 20.8154 318.004 22.8179 322.051 26.8231C326.097 30.8282 328.121 37.0051 328.121 45.3538L328.121 86.6461L318.173 86.6461L318.173 46.0308C318.173 40.8692 316.845 36.8712 314.189 34.0365C311.533 31.2019 307.859 29.7846 303.166 29.7846C298.248 29.7846 294.18 31.3288 290.963 34.4173C287.745 37.5058 286.136 41.8846 286.136 47.5538L286.136 47.5538ZM351.221 86.6461L340.261 86.6461L371.96 0L382.751 0L414.451 86.6461L403.491 86.6461L394.807 62.1077L359.904 62.1077L351.221 86.6461ZM363.192 52.8L391.519 52.8L377.693 13.7077L377.018 13.7077L363.192 52.8ZM427.94 0L440.417 0L469.756 71.9231L470.767 71.9231L500.106 0L512.583 0L512.583 86.6461L502.804 86.6461L502.804 20.8154L501.961 20.8154L474.983 86.6461L465.54 86.6461L438.562 20.8154L437.719 20.8154L437.719 86.6461L427.94 86.6461L427.94 0ZM533.491 86.6461L533.491 0L562.661 0C569.434 0 574.977 1.21987 579.291 3.65961C583.604 6.09937 586.801 9.39231 588.881 13.5385C590.96 17.6846 592 22.3103 592 27.4154C592 32.5205 590.967 37.1603 588.902 41.3346C586.836 45.509 583.654 48.8301 579.354 51.2981C575.054 53.766 569.546 55 562.83 55L543.945 55L543.945 86.6461L533.491 86.6461ZM543.945 45.6923L562.493 45.6923C569.434 45.6923 574.373 43.9436 577.31 40.4462C580.246 36.9487 581.715 32.6052 581.715 27.4154C581.715 22.1975 580.239 17.875 577.289 14.4481C574.338 11.0212 569.35 9.30772 562.324 9.30772L543.945 9.30772L543.945 45.6923Z" fill="url(#gradient_2)" transform="translate(210 48)" />
  </g>
</svg>